<svg width="70" height="62" viewBox="0 0 70 62" fill="none" xmlns="http://www.w3.org/2000/svg">
<path d="M69.249 1.15749L67.4707 13.3791C63.8349 13.0657 60.9501 13.6924 58.816 15.2593C56.682 16.7478 55.2198 18.9023 54.4294 21.7226C53.7181 24.4646 53.5995 27.5984 54.0738 31.1238H69.249V61.3252H39.9655V29.9487C39.9655 19.6857 42.4157 11.9297 47.316 6.6807C52.2164 1.35335 59.5274 -0.487723 69.249 1.15749ZM29.5325 1.15749L27.7542 13.3791C24.1184 13.0657 21.2336 13.6924 19.0995 15.2593C16.9655 16.7478 15.5033 18.9023 14.7129 21.7226C14.0016 24.4646 13.883 27.5984 14.3573 31.1238H29.5325V61.3252H0.249023V29.9487C0.249023 19.6857 2.69919 11.9297 7.59954 6.6807C12.4999 1.35335 19.8109 -0.487723 29.5325 1.15749Z" fill="white" fill-opacity="0.2"/>
</svg>
