<svg width="70" height="62" viewBox="0 0 70 62" fill="none" xmlns="http://www.w3.org/2000/svg">
<path d="M0.248055 60.9939L2.02641 48.7723C5.66214 49.0857 8.54702 48.4589 10.681 46.8921C12.8151 45.4035 14.2773 43.2491 15.0676 40.4287C15.779 37.6867 15.8975 34.553 15.4233 31.0275H0.248055V0.826172H29.5316V32.2027C29.5316 42.4657 27.0814 50.2217 22.181 55.4707C17.2807 60.798 9.9697 62.6391 0.248055 60.9939ZM39.9645 60.9939L41.7429 48.7723C45.3786 49.0857 48.2635 48.4589 50.3975 46.8921C52.5316 45.4035 53.9938 43.2491 54.7841 40.4287C55.4955 37.6867 55.614 34.553 55.1398 31.0275H39.9645V0.826172H69.248V32.2027C69.248 42.4657 66.7979 50.2217 61.8975 55.4707C56.9972 60.798 49.6862 62.6391 39.9645 60.9939Z" fill="white" fill-opacity="0.2"/>
</svg>
